<svg width="24" height="31" viewBox="0 0 24 31" fill="none" xmlns="http://www.w3.org/2000/svg">
<path d="M11.9768 0.523499C8.19051 0.523499 5.11011 4.01667 5.11011 8.31032C5.11011 12.604 8.19051 16.0971 11.9768 16.0971C15.7631 16.0971 18.8435 12.604 18.8435 8.31032C18.8435 4.01667 15.7631 0.523499 11.9768 0.523499ZM11.9768 14.3667C9.03191 14.3667 6.63604 11.6498 6.63604 8.31032C6.63604 4.97081 9.03191 2.2539 11.9768 2.2539C14.9217 2.2539 17.3176 4.97081 17.3176 8.31032C17.3176 11.6498 14.9217 14.3667 11.9768 14.3667Z" fill="white"/>
<path d="M20.5203 21.1842C18.6404 19.0196 16.1482 17.8275 13.5028 17.8275H10.4509C7.80555 17.8275 5.3133 19.0196 3.43335 21.1842C1.56261 23.3382 0.532349 26.1815 0.532349 29.1905C0.532349 29.6683 0.873954 30.0557 1.29531 30.0557H22.6584C23.0797 30.0557 23.4213 29.6683 23.4213 29.1905C23.4213 26.1815 22.3911 23.3382 20.5203 21.1842ZM2.09185 28.3253C2.4741 23.4175 6.07713 19.5579 10.4509 19.5579H13.5028C17.8766 19.5579 21.4796 23.4175 21.8618 28.3253H2.09185Z" fill="white"/>
</svg>
