<svg width="26" height="31" viewBox="0 0 26 31" fill="none" xmlns="http://www.w3.org/2000/svg">
<path d="M25.2994 13.4017C25.2988 13.4011 25.2982 13.4004 25.2976 13.3997L14.6916 1.37304C14.2396 0.860167 13.6385 0.577637 12.9992 0.577637C12.3599 0.577637 11.7588 0.859942 11.3066 1.37282L0.706173 13.3934C0.702602 13.3975 0.699032 13.4017 0.695461 13.4058C-0.232883 14.4646 -0.231297 16.1825 0.700024 17.2386C1.12551 17.7213 1.68748 18.0009 2.28833 18.0302C2.31273 18.0329 2.33732 18.0342 2.36212 18.0342H2.78483V26.8851C2.78483 28.6366 4.04147 30.0616 5.58633 30.0616H9.73571C10.1562 30.0616 10.4974 29.6749 10.4974 29.1978V22.2587C10.4974 21.4595 11.0707 20.8094 11.7755 20.8094H14.2229C14.9277 20.8094 15.501 21.4595 15.501 22.2587V29.1978C15.501 29.6749 15.842 30.0616 16.2627 30.0616H20.4121C21.9569 30.0616 23.2136 28.6366 23.2136 26.8851V18.0342H23.6055C24.2447 18.0342 24.8457 17.7519 25.2982 17.2391C26.2305 16.1811 26.2309 14.4603 25.2994 13.4017Z" fill="white"/>
</svg>
