<svg width="35" height="39" viewBox="0 0 35 39" fill="none" xmlns="http://www.w3.org/2000/svg">
<g filter="url(#filter0_d_58_177)">
<path d="M30.2772 13.4764L30.2754 13.4743L19.6694 1.44767C19.2174 0.934798 18.6163 0.652267 17.977 0.652267C17.3377 0.652267 16.7366 0.934573 16.2843 1.44745L5.68396 13.468C5.68039 13.4721 5.67682 13.4764 5.67324 13.4804C4.7449 14.5392 4.74649 16.2571 5.67781 17.3132C6.1033 17.796 6.66526 18.0756 7.26611 18.1048C7.29051 18.1075 7.31511 18.1089 7.3399 18.1089H7.76262V26.9598C7.76262 28.7112 9.01925 30.1362 10.5641 30.1362H14.7135C15.134 30.1362 15.4752 29.7495 15.4752 29.2724V22.3333C15.4752 21.5341 16.0485 20.884 16.7533 20.884H19.2007C19.9055 20.884 20.4788 21.5341 20.4788 22.3333V29.2724C20.4788 29.7495 20.8197 30.1362 21.2405 30.1362H25.3899C26.9347 30.1362 28.1914 28.7112 28.1914 26.9598V18.1089H28.5833C29.2225 18.1089 29.8235 17.8266 30.276 17.3137C31.2083 16.2558 31.2087 14.5349 30.2772 13.4764Z" fill="black"/>
<path d="M29.5254 14.1358L29.5255 14.1359L29.5264 14.137C29.5265 14.1371 29.5266 14.1372 29.5268 14.1373C30.1254 14.818 30.125 15.9721 29.5261 16.6521C29.2485 16.9668 28.9136 17.1089 28.5833 17.1089H28.1914H27.1914V18.1089V26.9598C27.1914 28.2807 26.2681 29.1362 25.3899 29.1362H21.4788V22.3333C21.4788 21.1037 20.5722 19.884 19.2007 19.884H16.7533C15.3817 19.884 14.4752 21.1037 14.4752 22.3333V29.1362H10.5641C9.68591 29.1362 8.76262 28.2807 8.76262 26.9598V18.1089V17.1089H7.76262H7.35786L7.34546 17.1075L7.31472 17.106C7.00321 17.0908 6.68815 16.9472 6.42799 16.652L6.42784 16.6518C5.82947 15.9733 5.82794 14.8208 6.42516 14.1397L6.43267 14.131L6.43659 14.1265L17.0344 2.10886L17.0344 2.10885C17.3117 1.79439 17.6464 1.65227 17.977 1.65227C18.3074 1.65227 18.6421 1.79445 18.9193 2.10891L18.9194 2.10909L29.5254 14.1358ZM6.43802 14.1248L6.43752 14.1254C6.4386 14.1241 6.4384 14.1244 6.43802 14.1248Z" stroke="white" stroke-width="2"/>
</g>
<defs>
<filter id="filter0_d_58_177" x="0.978149" y="0.652267" width="33.9974" height="37.4839" filterUnits="userSpaceOnUse" color-interpolation-filters="sRGB">
<feFlood flood-opacity="0" result="BackgroundImageFix"/>
<feColorMatrix in="SourceAlpha" type="matrix" values="0 0 0 0 0 0 0 0 0 0 0 0 0 0 0 0 0 0 127 0" result="hardAlpha"/>
<feOffset dy="4"/>
<feGaussianBlur stdDeviation="2"/>
<feComposite in2="hardAlpha" operator="out"/>
<feColorMatrix type="matrix" values="0 0 0 0 0 0 0 0 0 0 0 0 0 0 0 0 0 0 0.25 0"/>
<feBlend mode="normal" in2="BackgroundImageFix" result="effect1_dropShadow_58_177"/>
<feBlend mode="normal" in="SourceGraphic" in2="effect1_dropShadow_58_177" result="shape"/>
</filter>
</defs>
</svg>
