<svg width="22" height="29" viewBox="0 0 22 29" fill="none" xmlns="http://www.w3.org/2000/svg">
<path d="M15.5895 22.1611V24.3869C15.5895 26.8416 14.1198 28.8386 12.3132 28.8386H4.08166C2.27509 28.8386 0.80542 26.8416 0.80542 24.3869V4.79977C0.80542 2.34507 2.27509 0.348145 4.08166 0.348145H12.3132C14.1198 0.348145 15.5895 2.34507 15.5895 4.79977V7.02558C15.5895 7.64029 15.2228 8.13849 14.7704 8.13849C14.318 8.13849 13.9513 7.64029 13.9513 7.02558V4.79977C13.9513 3.57253 13.2164 2.57396 12.3132 2.57396H4.08166C3.17846 2.57396 2.44354 3.57253 2.44354 4.79977V24.3869C2.44354 25.6142 3.17846 26.6127 4.08166 26.6127H12.3132C13.2164 26.6127 13.9513 25.6142 13.9513 24.3869V22.1611C13.9513 21.5464 14.318 21.0482 14.7704 21.0482C15.2228 21.0482 15.5895 21.5464 15.5895 22.1611ZM21.1736 12.6816L19.3395 10.1895C19.0196 9.75481 18.501 9.75481 18.1812 10.1895C17.8612 10.6241 17.8612 11.3288 18.1812 11.7633L19.4858 13.5361H9.65127C9.19887 13.5361 8.83221 14.0343 8.83221 14.649C8.83221 15.2637 9.19887 15.7619 9.65127 15.7619H19.4858L18.1812 17.5347C17.8612 17.9692 17.8612 18.6739 18.1812 19.1084C18.3412 19.3258 18.5507 19.4345 18.7603 19.4345C18.97 19.4345 19.1796 19.3258 19.3395 19.1084L21.1736 16.6164C21.9721 15.5315 21.9721 13.7665 21.1736 12.6816Z" fill="white"/>
</svg>
