<svg width="26" height="27" viewBox="0 0 26 27" fill="none" xmlns="http://www.w3.org/2000/svg">
<path d="M23.1585 0.388687H2.79513C1.25891 0.388687 0.00909424 1.80598 0.00909424 3.54805V18.713C0.00909424 20.4551 1.25891 21.8724 2.79513 21.8724H9.3557C9.43578 21.8724 9.51192 21.9159 9.55948 21.9891L11.9531 25.669C12.1929 26.0379 12.5623 26.2506 12.9664 26.2527H12.9725C13.3743 26.2527 13.7429 26.0441 13.9845 25.6796L16.4324 21.9869C16.48 21.9151 16.5557 21.8723 16.6349 21.8723H23.1585C24.6948 21.8723 25.9446 20.455 25.9446 18.7129V3.54799C25.9446 1.80592 24.6948 0.388687 23.1585 0.388687ZM24.4249 18.713C24.4249 18.8487 24.4079 18.9798 24.3768 19.1043L16.5705 11.3444L24.4249 3.95279V18.713ZM23.1585 2.11198C23.3902 2.11198 23.6074 2.1832 23.7943 2.30688L13.7877 11.7238C13.3191 12.1649 12.6389 12.1649 12.1703 11.7238L2.16189 2.30521C2.3483 2.18257 2.56455 2.11198 2.79513 2.11198H23.1585ZM1.57693 19.1043C1.54577 18.9798 1.52875 18.8486 1.52875 18.713V3.94877L9.38528 11.3423L1.57693 19.1043ZM15.2178 20.9514L12.9742 24.3358L10.7825 20.9662C10.4497 20.4545 9.9163 20.149 9.35565 20.149H2.83125L10.5694 12.4568L11.1998 13.0499C11.7153 13.5351 12.347 13.7775 12.979 13.7775C13.6107 13.7775 14.2427 13.5349 14.7581 13.0499L15.3862 12.4588L23.1223 20.149H16.6349C16.0807 20.1491 15.5509 20.449 15.2178 20.9514Z" fill="white"/>
</svg>
