<svg width="27" height="27" viewBox="0 0 27 27" fill="none" xmlns="http://www.w3.org/2000/svg">
<path d="M23.9959 0.205322H3.63247C2.09625 0.205322 0.846436 1.62261 0.846436 3.36468V18.5296C0.846436 20.2717 2.09625 21.689 3.63247 21.689H10.193C10.2731 21.689 10.3493 21.7326 10.3968 21.8057L12.7904 25.4857C13.0303 25.8545 13.3996 26.0672 13.8037 26.0694H13.8098C14.2116 26.0694 14.5802 25.8607 14.8219 25.4962L17.2698 21.8036C17.3173 21.7318 17.3931 21.6889 17.4722 21.6889H23.9959C25.5321 21.6889 26.7819 20.2716 26.7819 18.5296V3.36463C26.7819 1.62255 25.5321 0.205322 23.9959 0.205322ZM25.2623 18.5296C25.2623 18.6653 25.2452 18.7964 25.2141 18.9209L17.4079 11.1611L25.2623 3.76943V18.5296ZM23.9959 1.92861C24.2275 1.92861 24.4447 1.99984 24.6317 2.12351L14.6251 11.5405C14.1564 11.9815 13.4763 11.9815 13.0076 11.5405L2.99923 2.12185C3.18564 1.99921 3.40189 1.92861 3.63247 1.92861H23.9959ZM2.41427 18.9209C2.38311 18.7964 2.36609 18.6652 2.36609 18.5296V3.76541L10.2226 11.1589L2.41427 18.9209ZM16.0551 20.7681L13.8115 24.1524L11.6198 20.7828C11.2871 20.2711 10.7536 19.9656 10.193 19.9656H3.66859L11.4068 12.2734L12.0371 12.8666C12.5526 13.3517 13.1843 13.5942 13.8163 13.5942C14.4481 13.5942 15.0801 13.3515 15.5955 12.8666L16.2235 12.2755L23.9597 19.9656H17.4722C16.918 19.9657 16.3882 20.2656 16.0551 20.7681Z" fill="#343131"/>
<path d="M25.2623 18.5296C25.2623 18.6653 25.2452 18.7964 25.2141 18.9209L17.4079 11.1611L25.2623 3.76943V18.5296Z" fill="white"/>
<path d="M23.9959 1.92861C24.2275 1.92861 24.4447 1.99984 24.6317 2.12351L14.6251 11.5405C14.1564 11.9815 13.4763 11.9815 13.0076 11.5405L2.99923 2.12185C3.18564 1.99921 3.40189 1.92861 3.63247 1.92861H23.9959Z" fill="white"/>
<path d="M16.0551 20.7681L13.8115 24.1524L11.6198 20.7828C11.2871 20.2711 10.7536 19.9656 10.193 19.9656H3.66859L11.4068 12.2734L12.0371 12.8666C12.5526 13.3517 13.1843 13.5942 13.8163 13.5942C14.4481 13.5942 15.0801 13.3515 15.5955 12.8666L16.2235 12.2755L23.9597 19.9656H17.4722C16.918 19.9657 16.3882 20.2656 16.0551 20.7681Z" fill="white"/>
<path d="M2.41427 18.9209C2.38311 18.7964 2.36609 18.6652 2.36609 18.5296V3.76541L10.2226 11.1589L2.41427 18.9209Z" fill="white"/>
<path fill-rule="evenodd" clip-rule="evenodd" d="M23.9959 0.205322H3.63247C2.09625 0.205322 0.846436 1.62261 0.846436 3.36468V18.5296C0.846436 20.2717 2.09625 21.689 3.63247 21.689H10.193C10.2731 21.689 10.3493 21.7326 10.3968 21.8057L12.7904 25.4857C13.0303 25.8545 13.3996 26.0672 13.8037 26.0694H13.8098C14.2116 26.0694 14.5802 25.8607 14.8219 25.4962L17.2698 21.8036C17.3173 21.7318 17.3931 21.6889 17.4722 21.6889H23.9959C25.5321 21.6889 26.7819 20.2716 26.7819 18.5296V3.36463C26.7819 1.62255 25.5321 0.205322 23.9959 0.205322ZM25.2141 18.9209C25.2452 18.7964 25.2623 18.6653 25.2623 18.5296V3.76943L17.4079 11.1611L25.2141 18.9209ZM24.6317 2.12351C24.4447 1.99984 24.2275 1.92861 23.9959 1.92861H3.63247C3.40189 1.92861 3.18564 1.99921 2.99923 2.12185L13.0076 11.5405C13.4763 11.9815 14.1564 11.9815 14.6251 11.5405L24.6317 2.12351ZM2.36609 18.5296C2.36609 18.6652 2.38311 18.7964 2.41427 18.9209L10.2226 11.1589L2.36609 3.76541V18.5296ZM13.8115 24.1524L16.0551 20.7681C16.3882 20.2656 16.918 19.9657 17.4722 19.9656H23.9597L16.2235 12.2755L15.5955 12.8666C15.0801 13.3515 14.4481 13.5942 13.8163 13.5942C13.1843 13.5942 12.5526 13.3517 12.0371 12.8666L11.4068 12.2734L3.66859 19.9656H10.193C10.7536 19.9656 11.2871 20.2711 11.6198 20.7828L13.8115 24.1524Z" fill="#A99CBF"/>
</svg>
