<svg width="27" height="30" viewBox="0 0 27 30" fill="none" xmlns="http://www.w3.org/2000/svg">
<path d="M14.7927 29.7366H13.1609C11.8411 29.7366 10.7674 28.519 10.7674 27.0224V26.3964C10.2063 26.1932 9.66116 25.9366 9.13745 25.6292L8.74624 26.0729C7.79871 27.1487 6.28091 27.1171 5.3609 26.0725L4.20761 24.7647C3.28598 23.7207 3.25947 22.0001 4.20792 20.9257L4.59883 20.4824C4.32781 19.8885 4.10158 19.2705 3.92227 18.6341H3.37028C2.05058 18.6341 0.976807 17.4165 0.976807 15.9199V14.0694C0.976807 12.5728 2.05058 11.3552 3.37033 11.3552H3.92232C4.10163 10.7189 4.32786 10.1008 4.59888 9.50692L4.20766 9.06333C3.25978 7.98959 3.28593 6.26881 4.20797 5.22437L5.36136 3.91648C6.2835 2.86934 7.80094 2.8432 8.74664 3.91683L9.13751 4.36007C9.66121 4.05279 10.2063 3.79619 10.7674 3.59285V2.96689C10.7674 1.4703 11.8412 0.252701 13.161 0.252701H14.7927C16.1125 0.252701 17.1862 1.4703 17.1862 2.96689V3.59291C17.7473 3.79619 18.2924 4.05279 18.8161 4.36013L19.2073 3.91648C20.1549 2.84067 21.6727 2.87222 22.5927 3.91689L23.746 5.22466C24.6676 6.26863 24.6941 7.98924 23.7456 9.06362L23.3547 9.50692C23.6257 10.1008 23.852 10.7189 24.0313 11.3552H24.5833C25.903 11.3552 26.9768 12.5728 26.9768 14.0694V15.9199C26.9768 17.4165 25.903 18.6341 24.5833 18.6341H24.0313C23.852 19.2704 23.6257 19.8885 23.3547 20.4824L23.746 20.9261C24.6938 21.9998 24.6677 23.7206 23.7456 24.765L22.5922 26.0729C21.6701 27.1201 20.1527 27.1462 19.207 26.0726L18.8161 25.6293C18.2924 25.9366 17.7473 26.1932 17.1862 26.3965V27.0226C17.1862 28.519 16.1125 29.7366 14.7927 29.7366ZM9.39212 23.8151C10.1197 24.303 10.9027 24.6716 11.7195 24.9107C12.0559 25.0091 12.2909 25.3531 12.2909 25.747V27.0224C12.2909 27.5665 12.6812 28.0091 13.161 28.0091H14.7927C15.2724 28.0091 15.6628 27.5665 15.6628 27.0224V25.747C15.6628 25.3531 15.8978 25.0091 16.2342 24.9107C17.051 24.6716 17.834 24.303 18.5615 23.8151C18.8609 23.6143 19.242 23.6689 19.4879 23.9478L20.2846 24.8513C20.6281 25.2413 21.1797 25.2322 21.5147 24.8517L22.6688 23.543C23.0031 23.1644 23.0142 22.5388 22.6691 22.148L21.8721 21.2442C21.6262 20.9653 21.5781 20.5331 21.7551 20.1937C22.1853 19.3687 22.5103 18.4807 22.7211 17.5545C22.808 17.173 23.1113 16.9066 23.4587 16.9066H24.5833C25.0631 16.9066 25.4534 16.464 25.4534 15.92V14.0695C25.4534 13.5255 25.0631 13.0829 24.5833 13.0829H23.4587C23.1113 13.0829 22.808 12.8164 22.7211 12.435C22.5103 11.5087 22.1853 10.6207 21.7551 9.79576C21.5781 9.45635 21.6262 9.02412 21.8721 8.74529L22.6688 7.84182C23.0132 7.45173 23.0042 6.82635 22.6691 6.4468L21.5151 5.13817C21.1806 4.75833 20.6289 4.74722 20.285 5.13782L19.488 6.04163C19.2421 6.32052 18.8608 6.37511 18.5616 6.17437C17.834 5.68644 17.051 5.31783 16.2342 5.0788C15.8979 4.98038 15.6628 4.63636 15.6628 4.24242V2.96689C15.6628 2.42288 15.2725 1.98028 14.7928 1.98028H13.161C12.6813 1.98028 12.2909 2.42288 12.2909 2.96689V4.2423C12.2909 4.63625 12.0559 4.98027 11.7195 5.07868C10.9028 5.31772 10.1197 5.68633 9.39217 6.17425C9.09277 6.37494 8.71165 6.32035 8.46577 6.04152L7.66912 5.13805C7.32563 4.74808 6.77399 4.75712 6.43899 5.13765L5.28488 6.44634C4.95064 6.82491 4.93947 7.45047 5.28458 7.84136L6.08159 8.74517C6.32747 9.024 6.37562 9.45624 6.19864 9.79565C5.76837 10.6206 5.44337 11.5086 5.23258 12.4349C5.14574 12.8163 4.84238 13.0828 4.49503 13.0828H3.37033C2.8906 13.0828 2.50024 13.5254 2.50024 14.0694V15.9199C2.50024 16.4639 2.8906 16.9065 3.37033 16.9065H4.49498C4.84238 16.9065 5.14569 17.173 5.23253 17.5544C5.44332 18.4807 5.76837 19.3687 6.19859 20.1936C6.37556 20.533 6.32742 20.9653 6.08154 21.2441L5.28483 22.1476C4.94044 22.5377 4.94942 23.163 5.28453 23.5426L6.43853 24.8512C6.77303 25.2311 7.32472 25.2422 7.66871 24.8516L8.46567 23.9478C8.64686 23.7424 9.02381 23.568 9.39212 23.8151Z" fill="white"/>
<path d="M13.9767 21.4097C10.8574 21.4097 8.3197 18.5319 8.3197 14.9947C8.3197 11.4574 10.8574 8.57959 13.9767 8.57959C17.0961 8.57959 19.6338 11.4574 19.6338 14.9947C19.6338 18.5319 17.0961 21.4097 13.9767 21.4097ZM13.9767 10.3072C11.6974 10.3072 9.84314 12.41 9.84314 14.9947C9.84314 17.5793 11.6975 19.6821 13.9767 19.6821C16.256 19.6821 18.1103 17.5793 18.1103 14.9947C18.1103 12.41 16.256 10.3072 13.9767 10.3072Z" fill="white"/>
</svg>
