<svg width="27" height="31" viewBox="0 0 27 31" fill="none" xmlns="http://www.w3.org/2000/svg">
<path d="M14.7927 30.1402H13.1609C11.8411 30.1402 10.7674 28.9226 10.7674 27.426V26.8C10.2063 26.5967 9.66116 26.3401 9.13745 26.0328L8.74624 26.4764C7.79871 27.5522 6.28091 27.5207 5.3609 26.476L4.20761 25.1682C3.28598 24.1243 3.25947 22.4037 4.20792 21.3293L4.59883 20.886C4.32781 20.2921 4.10158 19.674 3.92227 19.0376H3.37028C2.05058 19.0376 0.976807 17.82 0.976807 16.3235V14.473C0.976807 12.9764 2.05058 11.7588 3.37033 11.7588H3.92232C4.10163 11.1225 4.32786 10.5043 4.59888 9.91046L4.20766 9.46688C3.25978 8.39314 3.28593 6.67236 4.20797 5.62792L5.36136 4.32003C6.2835 3.27289 7.80094 3.24675 8.74664 4.32038L9.13751 4.76362C9.66121 4.45634 10.2063 4.19974 10.7674 3.9964V3.37044C10.7674 1.87384 11.8412 0.65625 13.161 0.65625H14.7927C16.1125 0.65625 17.1862 1.87384 17.1862 3.37044V3.99646C17.7473 4.19974 18.2924 4.45634 18.8161 4.76367L19.2073 4.32003C20.1549 3.24421 21.6727 3.27577 22.5927 4.32044L23.746 5.62821C24.6676 6.67218 24.6941 8.39279 23.7456 9.46717L23.3547 9.91046C23.6257 10.5043 23.852 11.1224 24.0313 11.7588H24.5833C25.903 11.7588 26.9768 12.9764 26.9768 14.473V16.3235C26.9768 17.82 25.903 19.0376 24.5833 19.0376H24.0313C23.852 19.674 23.6257 20.2921 23.3547 20.886L23.746 21.3296C24.6938 22.4034 24.6677 24.1241 23.7456 25.1686L22.5922 26.4765C21.6701 27.5236 20.1527 27.5497 19.207 26.4761L18.8161 26.0329C18.2924 26.3402 17.7473 26.5968 17.1862 26.8001V27.4261C17.1862 28.9226 16.1125 30.1402 14.7927 30.1402ZM9.39212 24.2186C10.1197 24.7066 10.9027 25.0752 11.7195 25.3142C12.0559 25.4126 12.2909 25.7566 12.2909 26.1506V27.426C12.2909 27.97 12.6812 28.4126 13.161 28.4126H14.7927C15.2724 28.4126 15.6628 27.97 15.6628 27.426V26.1506C15.6628 25.7566 15.8978 25.4126 16.2342 25.3142C17.051 25.0752 17.834 24.7066 18.5615 24.2186C18.8609 24.0179 19.242 24.0725 19.4879 24.3514L20.2846 25.2548C20.6281 25.6448 21.1797 25.6358 21.5147 25.2552L22.6688 23.9465C23.0031 23.568 23.0142 22.9424 22.6691 22.5515L21.8721 21.6477C21.6262 21.3689 21.5781 20.9367 21.7551 20.5972C22.1853 19.7723 22.5103 18.8843 22.7211 17.958C22.808 17.5766 23.1113 17.3101 23.4587 17.3101H24.5833C25.0631 17.3101 25.4534 16.8675 25.4534 16.3235V14.473C25.4534 13.929 25.0631 13.4864 24.5833 13.4864H23.4587C23.1113 13.4864 22.808 13.2199 22.7211 12.8385C22.5103 11.9123 22.1853 11.0243 21.7551 10.1993C21.5781 9.8599 21.6262 9.42766 21.8721 9.14883L22.6688 8.24537C23.0132 7.85528 23.0042 7.2299 22.6691 6.85035L21.5151 5.54172C21.1806 5.16188 20.6289 5.15077 20.285 5.54137L19.488 6.44518C19.2421 6.72407 18.8608 6.77866 18.5616 6.57792C17.834 6.08999 17.051 5.72138 16.2342 5.48234C15.8979 5.38393 15.6628 5.03991 15.6628 4.64597V3.37044C15.6628 2.82643 15.2725 2.38382 14.7928 2.38382H13.161C12.6813 2.38382 12.2909 2.82643 12.2909 3.37044V4.64585C12.2909 5.0398 12.0559 5.38382 11.7195 5.48223C10.9028 5.72127 10.1197 6.08988 9.39217 6.5778C9.09277 6.77849 8.71165 6.7239 8.46577 6.44506L7.66912 5.5416C7.32563 5.15163 6.77399 5.16067 6.43899 5.5412L5.28488 6.84989C4.95064 7.22846 4.93947 7.85402 5.28458 8.24491L6.08159 9.14872C6.32747 9.42755 6.37562 9.85979 6.19864 10.1992C5.76837 11.0242 5.44337 11.9121 5.23258 12.8384C5.14574 13.2199 4.84238 13.4863 4.49503 13.4863H3.37033C2.8906 13.4864 2.50024 13.929 2.50024 14.473V16.3235C2.50024 16.8675 2.8906 17.3101 3.37033 17.3101H4.49498C4.84238 17.3101 5.14569 17.5766 5.23253 17.958C5.44332 18.8842 5.76837 19.7722 6.19859 20.5972C6.37556 20.9366 6.32742 21.3688 6.08154 21.6477L5.28483 22.5511C4.94044 22.9412 4.94942 23.5666 5.28453 23.9461L6.43853 25.2548C6.77303 25.6346 7.32472 25.6457 7.66871 25.2551L8.46567 24.3513C8.64686 24.1459 9.02381 23.9716 9.39212 24.2186Z" fill="white"/>
<path d="M13.9767 21.8133C10.8574 21.8133 8.3197 18.9355 8.3197 15.3982C8.3197 11.8609 10.8574 8.98315 13.9767 8.98315C17.0961 8.98315 19.6338 11.8609 19.6338 15.3982C19.6338 18.9355 17.0961 21.8133 13.9767 21.8133ZM13.9767 10.7107C11.6974 10.7107 9.84314 12.8135 9.84314 15.3982C9.84314 17.9829 11.6975 20.0857 13.9767 20.0857C16.256 20.0857 18.1103 17.9829 18.1103 15.3982C18.1103 12.8135 16.256 10.7107 13.9767 10.7107Z" fill="white"/>
<path d="M20.3349 7.81417C20.2414 7.82586 20.3124 7.81654 20.3849 7.74185C20.505 7.6182 20.6655 7.45123 20.7521 7.30237C20.851 7.13228 20.9357 6.812 20.9357 6.61254C20.9357 6.50861 20.9155 6.90554 21.0191 6.91295C21.1941 6.92544 21.3574 7.0169 21.5142 7.09097C21.5862 7.12497 21.69 7.27345 21.7256 7.20223C21.8014 7.05062 21.0986 6.48512 20.9969 6.31213C20.9628 6.25413 20.8746 6.03827 20.7855 6.07292C20.4611 6.19905 20.529 6.69806 20.5351 6.97414C20.544 7.37487 20.7902 7.70736 21.1971 7.71404C21.3785 7.71701 21.5195 7.66522 21.4364 7.87537C21.3271 8.15136 21.2618 8.41996 21.186 8.70427C21.1754 8.74413 21.1579 8.97491 21.1248 9.00467C21.0476 9.07418 20.7708 8.93725 20.6965 8.91567C20.3311 8.80959 20.0237 8.81025 19.7118 8.57632C19.4501 8.38008 19.2142 8.14524 18.9942 7.90318C18.8942 7.79319 18.5324 7.65583 18.5324 7.91431C18.5324 8.18962 18.6555 8.56519 18.9719 8.56519C19.0459 8.56519 19.0832 8.57027 19.0832 8.48731C19.0832 8.34803 19.0646 8.77138 19.1054 8.90454C19.1481 9.04399 19.5159 9.55244 19.6228 9.20495C19.7295 8.85808 18.9821 8.91567 18.7939 8.91567C18.4254 8.91567 18.4134 8.84527 18.1374 8.56519C17.8916 8.31565 17.6411 8.01739 17.3308 7.85311C17.1813 7.77398 16.908 7.78785 16.7912 7.70291C16.5853 7.5532 16.2279 7.52339 15.9678 7.51376C15.4101 7.49311 14.8559 7.4637 14.2989 7.4637C13.3328 7.4637 12.3899 7.31349 11.4228 7.31349C10.8441 7.31349 11.5654 7.01512 11.751 6.92407C12.0215 6.79135 12.3285 6.73071 12.5743 6.55135C13.0182 6.22746 13.6337 6.14521 14.1543 6.0006C14.5208 5.89878 14.8726 5.91159 15.2502 5.91159C15.5292 5.91159 15.8206 6.0467 16.029 6.23425C16.1739 6.36467 16.344 6.48358 16.4685 6.62367C16.5128 6.6735 16.187 6.66261 16.1792 6.66261C15.8399 6.66261 15.5529 6.62325 15.2279 6.52353C14.8747 6.41515 14.6023 6.31698 14.3267 6.07848C13.995 5.7914 13.8073 5.42146 13.5757 5.06044C13.5101 4.95819 13.4617 4.88248 13.3865 4.79897C13.3085 4.71228 13.484 4.70692 13.5145 4.68771C13.6638 4.5937 13.7986 4.48475 13.954 4.39843C14.078 4.32955 14.3174 4.313 14.2154 4.10915C14.1715 4.02125 13.9651 3.91382 13.8761 3.90887C13.7658 3.90275 13.6785 3.71465 13.5757 3.7086C13.4046 3.69854 13.3172 3.69915 13.4756 3.5584C13.5799 3.46567 13.7914 3.50833 13.9262 3.50833C13.9706 3.50833 14.3045 3.48992 14.3045 3.53058C14.3045 3.69483 14.0808 3.96237 13.9985 4.09802C13.8807 4.29195 13.7755 4.54842 13.6647 4.76003C13.4859 5.10143 13.2151 5.37683 12.9971 5.68907C12.8494 5.90062 12.6181 6.07431 12.5354 6.31213C12.4715 6.49594 12.5185 6.73839 12.4742 6.9352C12.4282 7.13937 12.3836 7.36539 12.3741 7.57496C12.3683 7.70091 12.3688 8.01444 12.2239 8.01444C12.084 8.01444 11.805 8.02011 11.6731 8.07564C11.605 8.10431 11.4731 8.08933 11.4228 8.13683C11.3098 8.24356 11.2115 8.37346 11.1112 8.49287C11.0413 8.57611 10.7912 8.90203 10.7107 8.92679C10.4514 9.00659 10.2519 8.53204 10.1711 8.34823C10.1433 8.28512 10.1491 8.11873 10.1099 8.07564C10.0498 8.00951 9.57699 7.34377 9.57026 7.58608C9.55601 8.09903 9.49686 8.69026 9.63145 9.18826C9.64502 9.23845 9.76195 9.40267 9.70934 9.45529C9.62076 9.54386 9.39074 9.51887 9.28098 9.51648C8.9801 9.50994 8.54164 9.18306 8.27406 9.04362C8.08951 8.94745 7.94504 8.80273 7.76781 8.70427C7.69116 8.66168 7.68585 8.56639 7.61761 8.52625C7.4714 8.44024 7.40443 8.25492 7.21707 8.26478C7.0523 8.27345 6.94648 8.35588 6.78871 8.21471C6.69308 8.12915 6.4726 8.10186 6.42711 7.9755C6.38111 7.84773 6.40802 7.62983 6.46605 7.51376C6.60044 7.24498 6.97986 6.56247 7.3172 6.56247" stroke="white" stroke-width="3" stroke-linecap="round"/>
<path d="M16.082 8.95404C16.2919 9.1815 16.506 9.47267 16.7106 9.67725C16.8011 9.76779 16.5976 9.56513 16.5326 9.53261C16.234 9.38331 15.9352 9.2556 15.6536 9.07643C15.4788 8.96518 15.2987 8.78353 15.1279 8.69814C14.9648 8.61658 14.917 8.50343 14.7301 8.50343C14.4251 8.50343 14.1614 8.36204 13.8623 8.29203C13.8255 8.28342 13.6216 8.20302 13.6787 8.20302C13.9841 8.20302 14.2728 8.25141 14.5688 8.32541C15.6584 8.59781 16.6869 8.93763 17.6508 9.51592C18.041 9.75007 17.6063 9.49322 17.4561 9.37406C16.9336 8.95968 16.2873 8.70777 15.6369 8.58131C15.4308 8.54123 15.2372 8.58452 15.1112 8.38104C14.9812 8.17104 14.7062 8.13445 14.4798 8.07785C14.0798 7.97785 13.6707 8.00275 13.2615 8.00275C13.1899 8.00275 12.8705 8.10289 13.0584 8.10289C13.3066 8.10289 13.5696 8.07697 13.815 8.11401C14.4916 8.21615 15.1807 8.62329 15.7927 8.90954C16.1469 9.0752 16.8837 9.6833 17.4533 10.0806C18.0543 10.4998 18.6082 10.9715 19.1806 11.4268C19.4202 11.6174 19.6581 11.7744 19.8343 12.0277C20.122 12.4413 20.0773 11.7457 20.0985 11.5576C20.1312 11.2674 20.1695 10.7869 20.2988 10.5284C20.4123 10.3013 20.6807 10.8917 20.6993 10.9289C20.8439 11.218 21.1503 11.5798 21.1889 11.908C21.2303 12.2597 21.27 12.567 21.1166 12.9178C20.969 13.255 20.7383 13.7481 20.7383 14.1166C20.7383 14.2907 20.7106 14.4902 20.7633 14.659C20.8213 14.8444 20.648 14.61 20.6131 14.5616C20.5394 14.4595 20.2524 13.9108 20.1875 13.9108C20.0411 13.9108 20.7391 15.0165 20.7884 15.1124C20.8302 15.1937 21.1388 15.8883 21.1388 15.5908C21.1388 15.4981 21.2097 15.1035 21.0276 15.1736C20.7526 15.2793 20.5665 15.6701 20.3767 15.8745C20.2461 16.0151 20.0469 16.1699 20.2265 16.2918C20.4175 16.4214 20.6023 16.6256 20.8273 16.7034C21.0164 16.7689 21.0546 16.6907 21.1388 16.5644" stroke="white" stroke-width="3" stroke-linecap="round"/>
<path d="M23.9397 15.6748C24.0205 15.6546 24.4293 15.4132 24.4404 15.3243C24.4499 15.2487 24.5358 15.2149 24.5406 15.124C24.5447 15.0448 24.5406 14.9641 24.5406 14.8848C24.5406 14.5997 24.4008 14.9249 24.3792 15.0517C24.3029 15.5013 24.3403 15.9699 24.3403 16.4258C24.3403 16.8227 24.2769 15.5487 24.5406 15.252C24.6382 15.1421 24.5236 14.9358 24.6407 14.8626C24.7778 14.7769 24.591 14.3595 24.7492 14.6067C24.874 14.8018 24.9364 14.9999 25.0412 15.1991C25.08 15.2728 25.0913 15.5272 25.0913 15.4439C25.0913 15.2429 25.0412 15.0502 25.0412 14.8459C25.0412 14.737 25.0208 14.3518 24.9884 14.6762C24.9754 14.8061 24.9133 14.9226 24.8938 15.0489C24.8734 15.1818 24.9093 15.3198 24.8799 15.4523C24.8361 15.6495 24.8014 15.8754 24.7909 16.0753C24.7836 16.2134 24.7598 16.4774 24.6908 16.5983C24.6265 16.7107 24.4211 16.6761 24.3153 16.6761C24.14 16.6761 23.6143 16.6761 23.7895 16.6761" stroke="white" stroke-width="3" stroke-linecap="round"/>
<path d="M22.2374 17.1267C22.2374 17.3653 22.082 17.6958 21.9342 17.8805C21.7861 18.0656 21.5107 18.3769 21.4391 18.6037C21.3859 18.7721 21.2804 18.8516 21.186 18.9903C20.9416 19.3498 20.9356 18.6236 20.9356 18.4897C20.9356 18.4481 20.9636 17.8332 20.9078 17.8332C20.7809 17.8332 20.4219 18.718 20.307 18.8513C20.1443 19.0401 19.9476 19.218 19.823 19.4298C19.7853 19.4939 19.6953 19.5016 19.6867 19.4159C19.6577 19.1254 19.6775 18.8146 19.6839 18.523C19.6859 18.4355 19.868 17.8225 19.8286 18.0391C19.7301 18.5809 19.4871 19.1206 19.289 19.6301C19.1237 20.0551 19.0156 20.5342 18.7938 20.9374C18.7746 20.9725 18.7827 20.8579 18.7827 20.8178C18.7827 20.4466 18.7932 20.0767 18.8411 19.708C18.9029 19.233 19.0491 18.8058 19.1721 18.3506C19.2198 18.1744 19.5716 17.6021 19.403 18.0891C19.2039 18.6643 18.9329 19.315 18.9329 19.9305" stroke="white" stroke-width="3" stroke-linecap="round"/>
<path d="M19.8342 20.5314C19.8342 20.7919 19.7374 21.3373 19.9621 21.53C20.0641 21.6174 20.2527 21.8834 20.4127 21.7525C20.6374 21.5687 20.6853 21.1355 20.6853 20.8624C20.6853 20.5042 20.4608 21.5508 20.4378 21.9083C20.4329 21.9845 20.3674 22.6407 20.4656 22.6843C21.1689 22.9969 21.364 21.5318 21.1109 21.11C21.0496 21.0078 21.0069 20.8763 20.9885 20.7567C20.9689 20.6294 20.8419 20.5459 20.8355 20.4313C20.8259 20.2582 20.846 20.486 20.8661 20.5398C20.9657 20.8053 21.0396 21.0814 21.1471 21.3436C21.2563 21.61 21.4546 21.8971 21.4864 22.1837C21.5026 22.329 21.7692 22.4548 21.887 22.523C22.1609 22.6816 22.0776 23.4403 21.9649 23.6857C21.8212 23.9984 21.7293 24.1446 21.364 24.2476C21.0143 24.3462 20.6639 24.4471 20.4239 24.1252C20.1864 23.8067 19.9602 23.4872 19.7841 23.135" stroke="white" stroke-width="3" stroke-linecap="round"/>
<path d="M18.4323 23.3353C18.1536 23.2733 18.2446 22.5974 18.232 22.384C18.2221 22.215 17.7198 22.5429 17.6757 22.5592C17.2727 22.7081 16.8419 22.8346 16.4073 22.8346C15.7263 22.8346 15.9907 21.6965 16.3823 21.4355C16.8237 21.1412 17.8216 21.1233 17.8315 21.8332C17.8388 22.3587 17.7287 22.6329 17.456 23.0822C17.2273 23.4587 16.9533 23.8255 16.6187 24.1141C16.3406 24.3539 15.8791 24.6377 15.495 24.5786C15.1677 24.5283 14.8667 24.1142 14.8302 23.7859C14.8116 23.6191 14.939 23.5185 14.9275 23.7358C14.9222 23.837 14.7427 23.9124 14.6549 23.8805C14.2763 23.7428 14.3237 22.9347 14.0263 22.9347" stroke="white" stroke-width="3" stroke-linecap="round"/>
<path d="M11.0222 23.6856C11.0615 23.2538 11.2036 22.7584 11.4117 22.3838C11.5587 22.1192 11.8336 22.2672 12.0737 22.3838C12.5398 22.6103 12.5948 24.3242 12.21 24.228C11.7263 24.1071 11.2933 23.6221 10.9444 23.2962C10.7458 23.1107 10.51 22.8762 10.4659 22.6008C10.4059 22.2257 10.1633 21.6747 10.3992 21.3101C10.555 21.0693 11.0552 21.3141 11.2225 21.4103C11.5563 21.6021 11.7706 21.8573 11.8929 22.2336C12.0407 22.6884 12.1123 23.3824 12.4241 23.7635C12.8635 24.3004 13.1849 24.9416 13.5534 25.527C13.6152 25.625 13.87 25.7218 13.8761 25.8385C13.8892 26.087 13.9516 26.5109 13.8372 26.7397C13.7721 26.8699 13.4567 26.799 13.4783 26.9178C13.4889 26.976 13.5158 27.5791 13.5562 27.5881C13.8206 27.6469 13.9261 27.4407 14.1515 27.4407C14.2823 27.4407 14.358 27.2223 14.3796 27.093C14.4045 26.9434 14.4269 26.8052 14.4269 26.6396" stroke="white" stroke-width="3" stroke-linecap="round"/>
<path d="M8.06822 20.9319C8.19998 20.9439 8.79461 21.4091 8.75805 21.21C8.67803 20.7744 8.21843 20.3978 8.21843 19.9305C8.21843 19.7383 8.75077 20.45 8.79143 20.5313C8.93909 20.8267 8.96944 20.9838 8.96944 21.313C8.96944 22.2076 8.22039 22.3839 7.49244 22.3839C7.09799 22.3839 6.32474 22.5832 6.36591 21.8832C6.37108 21.7953 6.46605 21.8336 6.46605 21.911C6.46605 22.1252 6.4968 22.3643 6.4438 22.573C6.37331 22.8505 6.25771 23.1166 6.14061 23.3769C6.11264 23.439 5.97563 23.5918 6.02656 23.5465C6.28485 23.317 6.95956 23.2437 7.28939 23.3379C7.44551 23.3825 7.27444 24.0792 7.19203 24.1891C6.9131 24.561 7.2333 23.8361 7.33946 23.7107C7.67225 23.3174 8.40295 23.1191 8.81924 23.5354" stroke="white" stroke-width="3" stroke-linecap="round"/>
<path d="M8.81923 19.2296C8.60076 19.1899 8.29295 18.965 8.09325 18.8541C7.93171 18.7643 7.96808 18.5681 7.96808 18.4063C7.96808 18.1719 8.01815 17.9394 8.01815 17.7025C8.01815 17.4349 7.87374 17.2165 7.79562 16.971C7.73982 16.7956 7.81035 16.3134 7.70661 16.1866C7.56543 16.014 7.23712 16.3296 7.17812 16.4147C6.68818 17.1211 6.76645 17.9154 6.76645 18.7289C6.76645 18.9041 6.9166 18.9193 6.96672 19.0571C7.02389 19.2143 7.06686 19.2877 7.06686 19.4577C7.06686 19.501 7.06686 19.8386 7.06686 19.7025C7.06686 19.2447 6.81229 18.7283 6.69413 18.2894C6.55604 17.7765 6.16992 17.424 5.83741 17.0155C5.77321 16.9366 5.53242 16.6107 5.67608 16.6261C5.87092 16.6469 6.06335 16.8956 6.16842 17.0377C6.51528 17.507 6.72998 18.0587 6.93334 18.601C6.99726 18.7714 7.08278 19.3525 7.2421 19.4799C7.2695 19.5019 7.34147 19.7222 7.34223 19.7219C7.41318 19.6935 7.36936 19.2431 7.36727 19.1851C7.34992 18.7037 7.16252 18.2992 6.94447 17.8805C6.73877 17.4856 6.55532 17.1043 6.2463 16.779C6.07098 16.5945 6.0116 16.5223 5.78734 16.4035C5.6704 16.3416 5.39508 16.2332 5.31448 16.1365C5.15266 15.9423 4.73828 16.0252 4.51339 16.0252C4.37603 16.0252 4.39017 15.9569 4.36041 15.8528C4.34464 15.7976 4.23225 15.7649 4.20186 15.6859C4.1754 15.6171 4.16292 15.5737 4.16292 15.4995C4.16292 15.2347 4.0501 15.1113 3.86251 14.9238C3.82761 14.8889 3.61382 14.6289 3.58992 14.6289C3.47321 14.6289 3.54539 14.8633 3.48422 14.9627C3.41584 15.0738 3.36908 15.1938 3.36183 15.3243C3.35315 15.4806 3.16156 15.4608 3.16156 15.6358C3.16156 15.7656 3.16156 15.8954 3.16156 16.0252" stroke="white" stroke-width="3" stroke-linecap="round"/>
<path d="M6.36589 15.1241C6.36589 14.5854 6.36589 14.0467 6.36589 13.508C6.36589 13.4147 6.33583 13.2584 6.37702 13.1714C6.42228 13.0758 6.52692 13.0344 6.56616 12.9461C6.60765 12.8528 6.7339 12.7934 6.79425 12.6985C6.86462 12.588 6.93303 12.517 6.98896 12.3981C7.07203 12.2216 7.13071 12.0555 7.1948 11.8724C7.23422 11.7598 7.36071 11.6369 7.36725 11.5192C7.38246 11.2455 7.2146 11.0426 7.16976 10.796C7.10803 10.4564 6.66153 11.3861 6.64405 11.4385C6.52948 11.7822 6.3627 12.263 6.10443 12.5316C5.93659 12.7062 5.85933 12.9518 5.71501 13.1603C5.65881 13.2415 5.42017 13.4603 5.42017 13.5497C5.42017 13.6255 5.66376 13.7947 5.71501 13.8445C5.88502 14.01 6.14713 14.1405 6.36311 14.2395C6.73116 14.4082 6.98006 14.3881 7.26712 14.0504C7.35274 13.9496 7.36725 13.7985 7.36725 13.6721C7.36725 13.4836 7.46739 13.3276 7.46739 13.1464C7.46739 13.0096 7.55989 12.6984 7.63984 12.5956C7.75301 12.4501 7.82969 12.3052 7.94581 12.1589C7.97708 12.1195 8.70735 11.2571 8.71909 11.2688" stroke="white" stroke-width="3" stroke-linecap="round"/>
<path d="M22.3876 14.9739C22.6739 14.6877 23.0846 14.1882 23.5003 14.5623C23.6153 14.6658 23.6393 14.9381 23.6393 15.0991C23.6393 15.2219 23.8501 15.6301 23.9397 15.6749" stroke="white" stroke-width="3" stroke-linecap="round"/>
<path d="M18.0317 6.36218C17.9268 6.38841 18.0179 6.71266 17.8314 6.71266C17.7449 6.71266 17.7814 6.3448 17.7814 6.76273C17.7814 7.23553 18.0901 7.71075 18.1291 8.19801C18.1488 8.44447 18.1819 8.72252 18.1819 8.96571" stroke="white" stroke-width="3" stroke-linecap="round"/>
</svg>
